# xmcd
#
# Track frame offsets:
#	150
#	59337
#	82047
#	107166
#	135535
#
# Disc length: 2145 seconds
#
# Revision: 1
# Processed by: cddbd v1.5.1PL0 Copyright (c) Steve Scherf et al.
# Submitted via: CDex 1.50Beta5
#
DISCID=3f085f05
DTITLE=UROTASTAR RECORDS - GOT NIGHT
DYEAR=1900
DGENRE=
TTITLE0=3rd album non-stop mix
TTITLE1=朝影(EXTENDED MIX)
TTITLE2=TRUTH and FATE(INSTRUMENTAL MIX)
TTITLE3=EURO BEAT(INSTRUMENTAL MIX)
TTITLE4=鳥の詩(AGGRESSIVE INSTRUMENTAL MIX)
EXTD=
EXTT0=
EXTT1=
EXTT2=
EXTT3=
EXTT4=
PLAYORDER=
